<?xml version="1.0" standalone="no"?>
<!DOCTYPE svg PUBLIC "-//W3C//DTD SVG 20010904//EN"
 "http://www.w3.org/TR/2001/REC-SVG-20010904/DTD/svg10.dtd">
<svg version="1.0" xmlns="http://www.w3.org/2000/svg"
 width="260.000000pt" height="260.000000pt" viewBox="0 0 260.000000 260.000000"
 preserveAspectRatio="xMidYMid meet">
<metadata>
Created by potrace 1.14, written by Peter Selinger 2001-2017
</metadata>
<g transform="translate(0.000000,260.000000) scale(0.100000,-0.100000)"
fill="#000000" stroke="none">
<path d="M1180 2594 c-61 -10 -198 -29 -212 -28 -10 1 -18 -3 -18 -7 0 -5 -6
-9 -14 -9 -27 0 -223 -82 -268 -113 -16 -10 -28 -15 -28 -10 0 4 -4 3 -8 -2
-4 -6 -36 -30 -72 -54 -36 -24 -73 -52 -83 -63 -16 -16 -22 -17 -35 -6 -14 10
-15 10 -5 -1 9 -10 -10 -34 -85 -109 -54 -53 -90 -92 -82 -87 13 8 13 6 2 -7
-8 -9 -21 -14 -30 -11 -15 4 -15 3 -2 -7 11 -9 12 -13 3 -17 -7 -2 -13 -11
-13 -19 0 -8 -7 -17 -15 -20 -8 -4 -15 -12 -15 -20 0 -8 -7 -14 -15 -14 -9 0
-12 -6 -9 -15 4 -8 1 -15 -5 -15 -6 0 -10 -4 -8 -9 1 -5 -7 -17 -18 -26 -11
-9 -14 -14 -7 -10 18 9 15 -3 -8 -28 -11 -12 -18 -27 -15 -35 2 -7 -1 -15 -8
-18 -7 -2 -14 -14 -14 -27 -1 -12 -7 -23 -13 -25 -5 -2 -8 -8 -4 -13 3 -5 1
-9 -4 -9 -6 0 -8 -9 -5 -19 6 -22 -14 -64 -27 -56 -5 3 -12 0 -16 -6 -4 -7 -3
-9 4 -5 6 3 13 2 16 -3 3 -5 0 -11 -8 -14 -24 -9 -40 -391 -23 -557 4 -41 10
-97 12 -125 2 -29 10 -54 19 -61 9 -6 13 -14 9 -17 -3 -4 0 -7 7 -7 7 0 11 -3
8 -6 -4 -3 2 -24 12 -46 10 -23 16 -48 12 -57 -3 -9 -1 -13 3 -9 5 5 13 -2 20
-15 8 -15 8 -24 1 -29 -7 -5 -5 -8 4 -8 14 -1 50 -64 50 -89 0 -7 4 -10 9 -7
5 4 15 -7 23 -24 7 -16 16 -30 20 -30 5 0 8 -7 8 -15 0 -8 5 -15 10 -15 6 0
10 -5 10 -10 0 -11 26 -43 73 -87 15 -14 27 -32 27 -40 0 -7 5 -13 10 -13 14
0 60 -46 54 -54 -2 -3 -1 -4 2 -2 7 6 120 -85 117 -94 -1 -4 3 -7 10 -7 7 0
50 -23 95 -51 105 -64 257 -124 387 -152 147 -32 389 -35 525 -5 14 3 39 8 55
11 103 18 290 100 407 177 187 122 373 327 444 489 9 21 21 35 27 31 6 -3 7
-1 3 5 -4 6 2 30 14 54 11 23 20 49 20 58 0 9 5 21 10 26 6 6 13 24 16 40 3
16 9 31 13 34 4 3 8 12 8 20 0 23 12 109 22 165 12 63 7 312 -8 384 -6 29 -11
69 -11 88 0 18 -4 41 -9 51 -19 37 -32 69 -35 82 -2 8 -8 28 -15 43 -6 16 -8
34 -4 40 3 7 3 9 -2 5 -7 -7 -51 64 -57 93 -2 8 -6 16 -10 19 -3 3 -8 12 -10
20 -2 8 -11 21 -20 28 -10 7 -18 19 -18 27 0 7 -3 15 -7 17 -5 2 -28 30 -53
62 -44 59 -135 154 -199 209 -40 35 -196 137 -209 137 -5 0 -15 7 -22 15 -7 8
-16 13 -20 10 -4 -3 -13 2 -20 10 -7 8 -17 15 -23 15 -19 0 -147 53 -147 61 0
4 -10 5 -22 1 -13 -3 -19 -1 -15 5 4 6 -3 9 -16 8 -12 -1 -56 4 -97 12 -66 12
-320 25 -360 17z m-1130 -1659 c0 -8 -2 -15 -4 -15 -2 0 -6 7 -10 15 -3 8 -1
15 4 15 6 0 10 -7 10 -15z"/>
<path d="M46 1713 c-6 -14 -5 -15 5 -6 7 7 10 15 7 18 -3 3 -9 -2 -12 -12z"/>
<path d="M50 839 c0 -5 5 -7 10 -4 6 3 10 8 10 11 0 2 -4 4 -10 4 -5 0 -10 -5
-10 -11z"/>
</g>
</svg>
