<?xml version="1.0" standalone="no"?>
<!DOCTYPE svg PUBLIC "-//W3C//DTD SVG 20010904//EN"
 "http://www.w3.org/TR/2001/REC-SVG-20010904/DTD/svg10.dtd">
<svg version="1.0" xmlns="http://www.w3.org/2000/svg"
 width="512.000000pt" height="512.000000pt" viewBox="0 0 512.000000 512.000000"
 preserveAspectRatio="xMidYMid meet">
<metadata>
Created by potrace 1.14, written by Peter Selinger 2001-2017
</metadata>
<g transform="translate(0.000000,512.000000) scale(0.100000,-0.100000)"
fill="#000000" stroke="none">
<path d="M2379 5116 c-2 -2 -35 -6 -74 -10 -187 -16 -414 -67 -616 -139 -696
-248 -1268 -813 -1527 -1512 -83 -224 -125 -406 -152 -665 -8 -82 -5 -464 5
-520 3 -19 13 -78 21 -130 137 -855 718 -1594 1524 -1937 152 -65 381 -134
522 -158 18 -3 40 -7 48 -10 14 -3 49 -8 210 -25 72 -8 448 -5 500 4 14 2 45
7 70 10 25 4 56 9 70 11 14 3 40 7 57 10 313 51 700 214 983 413 320 225 611
546 774 852 16 30 37 69 46 85 48 86 160 367 175 435 2 8 10 40 19 70 55 195
80 398 81 655 0 219 -10 337 -45 505 -6 30 -14 66 -16 80 -11 55 -67 238 -101
329 -266 712 -867 1285 -1599 1525 -44 15 -91 28 -104 31 -12 2 -37 9 -54 14
-40 13 -217 48 -281 56 -27 4 -61 9 -75 11 -28 6 -456 15 -461 10z m446 -310
c17 -3 44 -7 60 -10 17 -3 48 -8 70 -11 83 -12 254 -59 372 -101 554 -200
1017 -620 1272 -1154 89 -186 153 -386 185 -577 8 -49 18 -106 22 -128 10 -60
12 -380 3 -460 -22 -198 -24 -211 -55 -339 -80 -319 -217 -602 -418 -858 -34
-43 -63 -78 -66 -78 -3 0 -20 48 -38 107 -82 263 -234 508 -442 713 -94 93
-232 201 -316 249 -16 9 -31 19 -34 22 -9 10 -215 107 -243 114 -33 9 -34 18
-4 38 83 55 213 192 272 287 57 91 127 252 135 312 1 4 6 22 11 40 15 53 24
155 22 268 -1 172 -57 360 -152 517 -58 96 -68 109 -151 193 -82 83 -117 112
-186 156 -187 119 -385 175 -609 169 -218 -5 -383 -56 -565 -174 -80 -52 -225
-185 -263 -241 -157 -230 -214 -392 -221 -624 -10 -350 144 -674 423 -888 22
-18 41 -35 41 -38 0 -3 -17 -12 -37 -19 -135 -47 -348 -176 -493 -297 -78 -66
-118 -105 -209 -208 -119 -135 -264 -399 -323 -588 -18 -60 -36 -107 -40 -105
-3 1 -33 36 -65 77 -211 268 -353 570 -427 905 -42 187 -51 281 -51 505 1 176
5 226 30 368 22 127 44 210 86 337 108 318 292 616 530 856 190 192 360 316
594 434 247 125 474 194 760 230 93 11 447 12 520 1z m-55 -856 c259 -74 458
-273 535 -535 36 -123 39 -293 7 -407 -63 -223 -206 -399 -407 -500 -60 -31
-134 -56 -183 -64 -21 -3 -40 -8 -44 -11 -19 -11 -219 -3 -283 11 -200 45
-375 167 -483 334 -42 65 -96 186 -107 237 -96 459 182 878 633 955 80 14 250
3 332 -20z m-52 -1844 c153 -19 273 -50 397 -101 457 -189 795 -608 879 -1090
9 -49 15 -89 13 -90 -8 -4 -93 -71 -97 -76 -11 -14 -198 -132 -276 -175 -201
-109 -504 -215 -689 -240 -22 -3 -51 -7 -65 -10 -69 -12 -190 -19 -330 -19
-202 1 -292 10 -480 52 -317 69 -600 200 -877 407 -71 53 -82 64 -78 86 3 14
8 45 11 70 14 102 99 341 153 430 9 15 30 52 48 81 78 130 244 309 373 401
174 123 380 215 565 252 17 4 41 9 55 11 14 3 61 8 105 12 44 3 81 7 83 8 4 3
168 -4 210 -9z"/>
</g>
</svg>
